<?xml version="1.0" encoding="iso-8859-1"?>
<!-- Generator: Adobe Illustrator 19.0.0, SVG Export Plug-In . SVG Version: 6.00 Build 0)  -->
<svg version="1.1" id="Capa_1" xmlns="http://www.w3.org/2000/svg" xmlns:xlink="http://www.w3.org/1999/xlink" x="0px" y="0px"
	 viewBox="0 0 512 512" style="enable-background:new 0 0 512 512;" xml:space="preserve">
<circle style="fill:#34ABE0;" cx="256" cy="256" r="256"/>
<g>
	<path style="fill:#78CAEF;" d="M4.748,305.371c10.094,51.66,35.725,97.761,71.826,133.235h91.679c3.678,0,7.011-1.494,9.415-3.908
		c2.414-2.414,3.908-5.736,3.908-9.425c0-7.356-5.966-13.322-13.322-13.322h-40.5c-3.678,0-7.011-1.484-9.415-3.897
		c-2.414-2.414-3.908-5.736-3.908-9.425c0-7.356,5.966-13.322,13.322-13.322h11.306c3.678,0,7.011-1.494,9.415-3.908
		c2.414-2.403,3.908-5.736,3.908-9.415c0-7.356-5.966-13.322-13.322-13.322h-37.418c-3.678,0-7.011-1.494-9.425-3.908
		c-2.403-2.403-3.897-5.736-3.897-9.415c0-7.356,5.966-13.322,13.322-13.322h82.16c3.678,0,7.011-1.494,9.415-3.908
		c2.414-2.403,3.908-5.736,3.908-9.415c0-7.356-5.966-13.322-13.322-13.322L4.748,305.371L4.748,305.371z"/>
	<path style="fill:#78CAEF;" d="M359.022,271.449L359.022,271.449c0-7.358,5.965-13.324,13.324-13.324h112.273
		c7.358,0,13.324,5.965,13.324,13.324l0,0c0,7.358-5.965,13.323-13.324,13.323h-36.316c-7.358,0-13.322,5.965-13.322,13.322l0,0
		c0,7.358,5.965,13.322,13.322,13.322h3.702c7.358,0,13.324,5.965,13.324,13.322l0,0c0,7.358-5.965,13.323-13.324,13.323H344.399
		c-7.358,0-13.324-5.965-13.324-13.323l0,0c0-7.358-5.965-13.322-13.322-13.322h-3.702c-7.358,0-13.322-5.965-13.322-13.322l0,0
		c0-7.358,5.965-13.322,13.322-13.322h31.648C353.057,284.771,359.022,278.807,359.022,271.449z"/>
	<path style="fill:#78CAEF;" d="M219.903,77.531c0,7.356,5.966,13.322,13.333,13.322h126.568c3.678,0,7.011-1.494,9.415-3.908
		c2.414-2.403,3.908-5.736,3.908-9.415c0-7.367,5.956-13.333,13.322-13.333h39.1c-27.251-24.106-59.674-42.496-95.399-53.29h-76.194
		c-3.678,0-7.011,1.494-9.415,3.897c-2.414,2.414-3.908,5.747-3.908,9.425c0,7.356,5.966,13.322,13.322,13.322h42.935
		c7.356,0,13.322,5.966,13.322,13.322c0,7.367-5.966,13.322-13.322,13.322h-63.655c-3.678,0-7.022,1.494-9.425,3.908
		C221.397,70.52,219.903,73.843,219.903,77.531z"/>
	<path style="fill:#78CAEF;" d="M85.375,176.897v-0.001c0-7.358,5.964-13.322,13.322-13.322h126.571
		c7.358,0,13.322,5.964,13.322,13.322v0.001c0,7.358-5.964,13.322-13.322,13.322h-21.095c-7.358,0-13.322,5.964-13.322,13.322v0.001
		c0,7.358-5.964,13.322-13.322,13.322H72.053c-7.358,0-13.322-5.964-13.322-13.322v-0.001c0-7.358,5.964-13.322,13.322-13.322l0,0
		C79.41,190.219,85.375,184.255,85.375,176.897z"/>
</g>
<path style="fill:#5C5E70;" d="M331.442,90.874v152.915l-12.08-5.707v23.467H181.55v-17.123l-5.572,2.941V90.874
	c0-17.299,5.654-33.297,15.212-46.204c9.571-12.92,23.047-22.763,38.679-27.793c7.511-2.427,15.509-3.728,23.834-3.728h0.014
	C296.639,13.149,331.442,47.95,331.442,90.874z"/>
<path style="fill:#494B5B;" d="M252.238,261.548c0.406,1.803,0.637,2.779,0.637,2.779l-48.631-2.779l-22.695-1.302v-15.822
	l-5.572,2.941V90.874c0-17.299,5.654-33.297,15.212-46.204c9.571-12.92,23.047-22.763,38.679-27.793
	c7.511-2.427,15.509-3.728,23.834-3.728h0.014c0,0-24.606,10.304-26.614,71.475C225.273,140.276,248.09,243.354,252.238,261.548z"/>
<path style="fill:#E5BFA3;" d="M415.822,32.338L361.5,169.935l-22.742-8.977l-8.667-3.43L384.397,19.93
	c3.429-8.667,13.241-12.932,21.924-9.501c1.823,0.726,3.461,1.715,4.851,2.951C416.44,17.922,418.527,25.478,415.822,32.338z"/>
<path style="fill:#F9D6B9;" d="M415.822,32.338L361.5,169.935l-22.742-8.977l54.106-137.103c2.966-7.478,10.676-11.68,18.309-10.475
	C416.44,17.922,418.527,25.478,415.822,32.338z"/>
<g>
	<polygon style="fill:#F9F9F9;" points="361.504,169.928 330.086,157.526 293.922,215.682 320.711,272.178 	"/>
	<path style="fill:#F9F9F9;" d="M320.714,250.952v183.933H186.706V250.952c0-1.902,0.146-3.772,0.428-5.59
		c2.132-13.96,12.142-25.318,25.36-29.393c0.324-0.104,0.658-0.199,0.993-0.293c0.794-0.23,1.609-0.428,2.424-0.596
		c2.393-0.502,4.869-0.752,7.419-0.752h60.761c2.55,0,5.026,0.261,7.419,0.752c0.815,0.178,1.62,0.366,2.414,0.596
		C309.377,219.971,320.714,234.14,320.714,250.952z"/>
</g>
<path style="fill:#E5BFA3;" d="M90.701,32.338l54.322,137.597l22.742-8.977l8.667-3.43L122.127,19.93
	c-3.429-8.667-13.241-12.932-21.924-9.501c-1.823,0.726-3.461,1.715-4.851,2.951C90.083,17.922,87.997,25.478,90.701,32.338z"/>
<path style="fill:#F9D6B9;" d="M99.372,28.904l54.322,137.597l22.742-8.977L122.33,20.421c-2.966-7.478-10.676-11.68-18.309-10.475
	C98.754,14.489,96.669,22.044,99.372,28.904z"/>
<polygon style="fill:#F9F9F9;" points="212.598,215.676 212.494,215.969 195.504,266.218 189.966,282.592 186.705,274.421 
	146.916,174.706 145.014,169.931 176.434,157.528 "/>
<path style="fill:#E5BFA3;" d="M134.652,26.33c0,14.556-11.793,26.349-26.349,26.349c-1.533,0-3.048-0.133-4.505-0.397
	c-12.4-2.12-21.826-12.929-21.826-25.952C81.972,11.793,93.765,0,108.303,0c8.537,0,16.128,4.051,20.917,10.354
	C132.627,14.784,134.652,20.312,134.652,26.33z"/>
<path style="fill:#F9D6B9;" d="M134.652,26.33c0,14.556-11.793,26.349-26.349,26.349c-1.533,0-3.048-0.133-4.505-0.397
	c-3.407-4.429-5.432-9.976-5.432-15.995c0-14.556,11.793-26.33,26.33-26.33c1.553,0,3.067,0.133,4.524,0.397
	C132.627,14.784,134.652,20.312,134.652,26.33z"/>
<g>
	<polyline style="fill:#E8E8E8;" points="180.512,165.375 148.481,178.606 145.018,169.928 176.436,157.526 	"/>
	<path style="fill:#E8E8E8;" d="M330.086,157.526l-28.504,44.815c-4.765,7.492-13.029,12.026-21.907,12.018
		c-22.546-0.019-48.58,43.733-26.414,43.975c18.387,0.2,33.995-12.002,38.985-28.74c9.725-4.533,17.66-12.179,22.549-21.73
		l23.756-46.41L330.086,157.526z"/>
</g>
<path style="fill:#32BF84;" d="M320.714,434.885v68.859c-18.892,4.932-38.63,7.743-58.964,8.192v-27.491
	c0-2.226-0.909-4.232-2.351-5.695c-1.463-1.452-3.469-2.361-5.695-2.361c-4.441,0-8.035,3.605-8.035,8.056v27.345
	c-20.355-0.805-40.103-3.992-58.964-9.279v-67.626L320.714,434.885L320.714,434.885z"/>
<g>
	<path style="fill:#29A886;" d="M276.87,491.414v19.749c-4.995,0.408-10.041,0.669-15.12,0.773v-27.491
		c0-2.226-0.909-4.232-2.351-5.695c-1.463-1.452-3.469-2.361-5.695-2.361h8.129C270.141,476.389,276.87,483.128,276.87,491.414z"/>
	<path style="fill:#29A886;" d="M201.783,434.885v71.356c-5.089-1.087-10.115-2.341-15.078-3.73c-0.01,0-0.031-0.01-0.042-0.01
		v-67.615H201.783z"/>
</g>
<path style="fill:#E5BFA3;" d="M424.551,26.33c0,14.556-11.793,26.349-26.349,26.349c-1.533,0-3.048-0.133-4.505-0.397
	c-12.399-2.12-21.826-12.929-21.826-25.952c0-14.538,11.793-26.33,26.33-26.33c8.537,0,16.128,4.051,20.917,10.354
	C422.526,14.784,424.551,20.312,424.551,26.33z"/>
<path style="fill:#F9D6B9;" d="M424.551,26.33c0,14.556-11.793,26.349-26.349,26.349c-1.533,0-3.048-0.133-4.505-0.397
	c-3.407-4.429-5.432-9.976-5.432-15.995c0-14.556,11.793-26.33,26.33-26.33c1.553,0,3.067,0.133,4.524,0.397
	C422.526,14.784,424.551,20.312,424.551,26.33z"/>
<g>
	<polyline style="fill:#E8E8E8;" points="326.011,165.375 358.043,178.606 361.504,169.928 330.086,157.526 	"/>
	<path style="fill:#E8E8E8;" d="M291.509,215.081v18.254c0,20.846-16.959,37.804-37.794,37.804c-7.22,0-14.242-2.048-20.302-5.904
		c-2.341-1.494-4.504-3.239-6.437-5.162c-7.147-7.178-11.065-16.666-11.065-26.739v-18.254c2.393-0.502,4.869-0.752,7.419-0.752
		h60.761C286.64,214.328,289.116,214.59,291.509,215.081z"/>
</g>
<path style="fill:#E5BFA3;" d="M282.366,185.599v47.731c0,15.822-12.813,28.656-28.656,28.656c-5.664,0-10.932-1.637-15.379-4.47
	c-1.77-1.128-3.407-2.434-4.89-3.916c-5.178-5.2-8.386-12.369-8.386-20.27v-47.731H282.366z"/>
<g>
	<path style="fill:#F9D6B9;" d="M282.366,218.039v15.29c0,15.822-12.813,28.656-28.656,28.656c-5.664,0-10.932-1.637-15.379-4.47
		v-20.174c0-10.661,8.642-19.303,19.303-19.303h24.732V218.039z"/>
	<path style="fill:#F9D6B9;" d="M311.611,125.322v20.49c0,17.614-6.484,33.568-16.972,45.098
		c-10.467,11.551-24.939,18.698-40.937,18.698c-0.907,0-1.792-0.022-2.7-0.089c-30.714-1.527-55.21-29.474-55.21-63.707v-32.02
		c1.194-0.22,2.368-0.509,3.474-0.818c6.418-1.726,11.396-4.514,15.224-7.679c2.766-2.302,4.935-4.802,6.66-7.236
		c4.514-6.396,5.753-12.392,5.93-13.321c0.022-0.067,0.022-0.089,0.022-0.111c5.179,4.205,11.684,8.586,19.605,12.126
		c4.271,1.948,8.94,3.629,14.007,4.935c5.178,1.35,10.799,2.302,16.84,2.7C297.537,105.695,307.118,114.523,311.611,125.322z"/>
</g>
<g>
	<path style="fill:#E5BFA3;" d="M251.001,209.52c-30.714-1.527-55.21-29.474-55.21-63.707v-30.957
		c1.217-0.598,2.39-1.217,3.474-1.881c6.418-1.726,11.396-4.514,15.224-7.679v44.942C214.489,177.147,229.603,200.16,251.001,209.52
		z"/>
	<path style="fill:#E5BFA3;" d="M260.716,141.117c0,3.784-2.838,7.168-6.617,7.363c-4.043,0.209-7.39-2.986-7.39-6.983"/>
</g>
<path style="fill:#FFFFFF;" d="M274.929,164.725c0,2.072-0.304,4.073-0.911,5.95c-0.876,2.894-2.412,5.521-4.43,7.683
	c-3.662,3.984-8.933,6.468-14.758,6.468c-5.825,0-11.095-2.484-14.758-6.468c-2.019-2.162-3.556-4.788-4.43-7.683
	c-0.607-1.876-0.911-3.877-0.911-5.95H274.929z"/>
<g>
	<path style="fill:#5C5E70;" d="M288.2,136.327V123.05c0-3.463-2.807-6.269-6.269-6.269l0,0c-3.463,0-6.269,2.807-6.269,6.269
		v13.276c0,3.463,2.807,6.269,6.269,6.269l0,0C285.392,142.597,288.2,139.79,288.2,136.327z"/>
	<path style="fill:#5C5E70;" d="M219.233,123.05v13.276c0,3.463,2.807,6.269,6.269,6.269l0,0c3.463,0,6.269-2.807,6.269-6.269
		V123.05c0-3.463-2.807-6.269-6.269-6.269l0,0C222.04,116.781,219.233,119.588,219.233,123.05z"/>
</g>
<g>
	<circle style="fill:#797B89;" cx="283.073" cy="127.76" r="3.307"/>
	<circle style="fill:#797B89;" cx="279.374" cy="135.607" r="1.902"/>
	<circle style="fill:#797B89;" cx="226.649" cy="127.76" r="3.307"/>
	<circle style="fill:#797B89;" cx="222.95" cy="135.607" r="1.902"/>
</g>
<g>
	<path style="fill:#E8E8E8;" d="M320.713,309.571l-0.002-37.393l-6.23,26.454c-1.509,6.409-7.23,10.939-13.815,10.939h-85.031
		c-9.733,0-17.624-7.891-17.624-17.624v-19.47l-2.508-6.259l-8.37-20.856l-28.463-70.969l-11.755,0.313l39.79,99.715v160.465h11.306
		V329.424h122.702v-19.853L320.713,309.571L320.713,309.571z"/>
	<path style="fill:#E8E8E8;" d="M320.714,375.347v59.538c-18.735-38.588-89.339-39.142-134.008-45.861v-36.571
		C231.375,359.172,276.044,368.639,320.714,375.347z"/>
</g>
<path style="fill:#FF5A5A;" d="M490.572,358.691c-6.207,14.158-13.657,27.638-22.204,40.312
	c-147.466,19.863-294.943-56.278-442.41-30.563c-5.339-10.888-9.916-22.204-13.667-33.886
	C171.722,299.749,331.142,391.115,490.572,358.691z"/>
<g>
</g>
<g>
</g>
<g>
</g>
<g>
</g>
<g>
</g>
<g>
</g>
<g>
</g>
<g>
</g>
<g>
</g>
<g>
</g>
<g>
</g>
<g>
</g>
<g>
</g>
<g>
</g>
<g>
</g>
</svg>
